<?xml version="1.0" ?><svg id="Layer_1" style="enable-background:new 0 0 512 512;" version="1.1" viewBox="0 0 512 512" xml:space="preserve" xmlns="http://www.w3.org/2000/svg" xmlns:xlink="http://www.w3.org/1999/xlink"><style type="text/css">
	.st0{fill:#ED6F62;}
	.st1{fill:#FFFFFF;}
</style><g id="XMLID_4778_"><circle class="st0" cx="256" cy="256" id="XMLID_4754_" r="256"/><g id="XMLID_4521_"><g id="XMLID_4550_"><path class="st1" d="M289.2,340.5H284V314h-6.6v-4.2l11.9-1.1V340.5z" id="XMLID_4560_"/><path class="st1" d="M320.9,329.3c0,3.6-0.9,6.5-2.8,8.5c-1.9,2.1-4.3,3.1-7.5,3.1c-3.1,0-5.6-1-7.5-3.1     c-1.9-2.1-2.8-4.9-2.8-8.5v-8.9c0-3.6,0.9-6.4,2.8-8.5c1.9-2.1,4.4-3.1,7.5-3.1c3.1,0,5.6,1,7.5,3.1c1.9,2.1,2.8,4.9,2.8,8.5     V329.3z M315.6,319.6c0-2.1-0.4-3.7-1.3-4.9c-0.9-1.2-2.1-1.8-3.7-1.8c-1.6,0-2.8,0.6-3.7,1.8c-0.9,1.2-1.3,2.8-1.3,4.9V330     c0,2.1,0.4,3.8,1.3,5c0.9,1.2,2.1,1.8,3.7,1.8c1.6,0,2.8-0.6,3.7-1.8c0.9-1.2,1.3-2.8,1.3-5V319.6z" id="XMLID_4557_"/><path class="st1" d="M325.3,315.2c0-1.8,0.6-3.4,1.8-4.6c1.2-1.2,2.8-1.9,4.8-1.9c2.1,0,3.7,0.6,4.9,1.8     c1.2,1.2,1.8,2.8,1.8,4.6v1.7c0,1.8-0.6,3.4-1.8,4.6c-1.2,1.2-2.8,1.8-4.8,1.8c-2.1,0-3.7-0.6-4.9-1.8c-1.2-1.2-1.8-2.8-1.8-4.6     V315.2z M328.9,316.8c0,0.9,0.3,1.7,0.8,2.3c0.5,0.6,1.3,1,2.2,1c0.9,0,1.7-0.3,2.2-0.9c0.5-0.6,0.8-1.4,0.8-2.3v-1.7     c0-0.9-0.3-1.7-0.8-2.4c-0.5-0.6-1.3-1-2.2-1c-1,0-1.7,0.3-2.2,1c-0.5,0.6-0.8,1.4-0.8,2.4V316.8z M333,338.1l-2.7-1.5l15.3-24.5     l2.7,1.5L333,338.1z M340.3,332.8c0-1.8,0.6-3.4,1.8-4.6c1.2-1.2,2.8-1.9,4.8-1.9c2.1,0,3.7,0.6,4.9,1.8c1.2,1.2,1.8,2.8,1.8,4.6     v1.7c0,1.8-0.6,3.4-1.8,4.6s-2.8,1.8-4.8,1.8c-2.1,0-3.7-0.6-4.9-1.8c-1.2-1.2-1.8-2.8-1.8-4.6V332.8z M343.9,334.5     c0,0.9,0.3,1.7,0.8,2.3c0.5,0.6,1.3,1,2.2,1c1,0,1.7-0.3,2.2-0.9c0.5-0.6,0.7-1.4,0.7-2.4v-1.7c0-0.9-0.3-1.7-0.8-2.3     c-0.5-0.6-1.3-1-2.2-1c-1,0-1.7,0.3-2.2,1c-0.5,0.6-0.8,1.4-0.8,2.3V334.5z" id="XMLID_4551_"/></g><g id="XMLID_4538_"><path class="st1" d="M318.9,268.1h-20.2v-3.6l9.8-11.3c1.6-1.9,2.7-3.4,3.3-4.6c0.6-1.2,0.9-2.4,0.9-3.5     c0-1.3-0.4-2.4-1.1-3.3c-0.7-0.8-1.8-1.3-3.2-1.3c-1.6,0-2.9,0.5-3.7,1.6c-0.9,1-1.3,2.4-1.3,4h-5.1l0-0.1     c-0.1-2.7,0.8-4.9,2.7-6.8c1.8-1.9,4.3-2.8,7.5-2.8c3,0,5.3,0.8,7,2.4c1.7,1.6,2.5,3.7,2.5,6.3c0,1.8-0.5,3.4-1.4,5     c-0.9,1.5-2.5,3.6-4.6,6.2l-6.6,7.6l0,0.1h13.5V268.1z" id="XMLID_4548_"/><path class="st1" d="M343.6,256.9c0,3.6-0.9,6.5-2.8,8.5c-1.9,2.1-4.3,3.1-7.5,3.1c-3.1,0-5.6-1-7.5-3.1     c-1.9-2.1-2.8-4.9-2.8-8.5V248c0-3.6,0.9-6.4,2.8-8.5c1.9-2.1,4.4-3.1,7.5-3.1c3.1,0,5.6,1,7.5,3.1c1.9,2.1,2.8,4.9,2.8,8.5     V256.9z M338.4,247.2c0-2.1-0.4-3.7-1.3-4.9c-0.9-1.2-2.1-1.8-3.7-1.8c-1.6,0-2.8,0.6-3.7,1.8c-0.9,1.2-1.3,2.8-1.3,4.9v10.4     c0,2.1,0.4,3.8,1.3,5c0.9,1.2,2.1,1.8,3.7,1.8c1.6,0,2.8-0.6,3.7-1.8c0.9-1.2,1.3-2.8,1.3-5V247.2z" id="XMLID_4545_"/><path class="st1" d="M348.1,242.8c0-1.8,0.6-3.4,1.8-4.6c1.2-1.2,2.8-1.9,4.8-1.9c2.1,0,3.7,0.6,4.9,1.8     c1.2,1.2,1.8,2.8,1.8,4.6v1.7c0,1.8-0.6,3.4-1.8,4.6c-1.2,1.2-2.8,1.8-4.8,1.8c-2.1,0-3.7-0.6-4.9-1.8c-1.2-1.2-1.8-2.8-1.8-4.6     V242.8z M351.7,244.4c0,0.9,0.3,1.7,0.8,2.3c0.5,0.6,1.3,1,2.2,1c0.9,0,1.7-0.3,2.2-0.9c0.5-0.6,0.8-1.4,0.8-2.3v-1.7     c0-0.9-0.3-1.7-0.8-2.4c-0.5-0.6-1.3-1-2.2-1c-1,0-1.7,0.3-2.2,1c-0.5,0.6-0.8,1.4-0.8,2.4V244.4z M355.8,265.7l-2.7-1.5     l15.3-24.5l2.7,1.5L355.8,265.7z M363.1,260.4c0-1.8,0.6-3.4,1.8-4.6c1.2-1.2,2.8-1.9,4.8-1.9c2.1,0,3.7,0.6,4.9,1.8     c1.2,1.2,1.8,2.8,1.8,4.6v1.7c0,1.8-0.6,3.4-1.8,4.6c-1.2,1.2-2.8,1.8-4.8,1.8c-2.1,0-3.7-0.6-4.9-1.8c-1.2-1.2-1.8-2.8-1.8-4.6     V260.4z M366.7,262.1c0,0.9,0.3,1.7,0.8,2.3c0.5,0.6,1.3,1,2.2,1c1,0,1.7-0.3,2.2-0.9c0.5-0.6,0.7-1.4,0.7-2.4v-1.7     c0-0.9-0.3-1.7-0.8-2.3c-0.5-0.6-1.3-1-2.2-1c-1,0-1.7,0.3-2.2,1c-0.5,0.6-0.8,1.4-0.8,2.3V262.1z" id="XMLID_4539_"/></g><g id="XMLID_4526_"><path class="st1" d="M334.7,175.6c1.7,0,2.9-0.4,3.7-1.3c0.7-0.8,1.1-2,1.1-3.5c0-1.4-0.4-2.5-1.2-3.3     c-0.8-0.9-2-1.3-3.5-1.3c-1.4,0-2.6,0.4-3.5,1.3c-0.9,0.8-1.4,1.9-1.4,3.2h-5l0-0.1c-0.1-2.4,0.8-4.4,2.7-6     c1.9-1.6,4.3-2.4,7.2-2.4c3.1,0,5.5,0.7,7.2,2.2c1.8,1.5,2.7,3.7,2.7,6.5c0,1.4-0.4,2.7-1.2,3.9c-0.8,1.2-1.9,2.1-3.3,2.8     c1.6,0.6,2.8,1.6,3.7,2.8c0.8,1.3,1.3,2.8,1.3,4.6c0,2.9-1,5.1-2.9,6.8c-1.9,1.6-4.4,2.5-7.5,2.5c-2.8,0-5.2-0.8-7.2-2.3     c-2.1-1.6-3.1-3.7-3-6.4l0-0.1h5c0,1.3,0.5,2.4,1.5,3.3c1,0.9,2.2,1.3,3.7,1.3c1.6,0,2.8-0.5,3.8-1.4c0.9-0.9,1.4-2.1,1.4-3.6     c0-1.8-0.4-3.1-1.3-4c-0.9-0.9-2.2-1.3-3.9-1.3h-3.5v-4.1H334.7z" id="XMLID_4536_"/><path class="st1" d="M370,182.5c0,3.6-0.9,6.5-2.8,8.5c-1.9,2.1-4.3,3.1-7.5,3.1c-3.1,0-5.6-1-7.5-3.1     c-1.9-2.1-2.8-4.9-2.8-8.5v-8.9c0-3.6,0.9-6.4,2.8-8.5c1.9-2.1,4.4-3.1,7.5-3.1c3.1,0,5.6,1,7.5,3.1c1.9,2.1,2.8,4.9,2.8,8.5     V182.5z M364.8,172.8c0-2.1-0.4-3.7-1.3-4.9c-0.9-1.2-2.1-1.8-3.7-1.8c-1.6,0-2.8,0.6-3.7,1.8c-0.9,1.2-1.3,2.8-1.3,4.9v10.4     c0,2.1,0.4,3.8,1.3,5c0.9,1.2,2.1,1.8,3.7,1.8c1.6,0,2.8-0.6,3.7-1.8c0.9-1.2,1.3-2.8,1.3-5V172.8z" id="XMLID_4533_"/><path class="st1" d="M374.4,168.4c0-1.8,0.6-3.4,1.8-4.6c1.2-1.2,2.8-1.9,4.8-1.9c2.1,0,3.7,0.6,4.9,1.8     c1.2,1.2,1.8,2.8,1.8,4.6v1.7c0,1.8-0.6,3.4-1.8,4.6c-1.2,1.2-2.8,1.8-4.8,1.8c-2.1,0-3.7-0.6-4.9-1.8c-1.2-1.2-1.8-2.8-1.8-4.6     V168.4z M378,170.1c0,0.9,0.3,1.7,0.8,2.3c0.5,0.6,1.3,1,2.2,1c0.9,0,1.7-0.3,2.2-0.9c0.5-0.6,0.8-1.4,0.8-2.3v-1.7     c0-0.9-0.3-1.7-0.8-2.4c-0.5-0.6-1.3-1-2.2-1c-1,0-1.7,0.3-2.2,1c-0.5,0.6-0.8,1.4-0.8,2.4V170.1z M382.1,191.4l-2.7-1.5     l15.3-24.5l2.7,1.5L382.1,191.4z M389.5,186c0-1.8,0.6-3.4,1.8-4.6c1.2-1.2,2.8-1.9,4.8-1.9c2.1,0,3.7,0.6,4.9,1.8     c1.2,1.2,1.8,2.8,1.8,4.6v1.7c0,1.8-0.6,3.4-1.8,4.6c-1.2,1.2-2.8,1.8-4.8,1.8c-2.1,0-3.7-0.6-4.9-1.8c-1.2-1.2-1.8-2.8-1.8-4.6     V186z M393.1,187.7c0,0.9,0.3,1.7,0.8,2.3c0.5,0.6,1.3,1,2.2,1c1,0,1.7-0.3,2.2-0.9c0.5-0.6,0.7-1.4,0.7-2.4V186     c0-0.9-0.3-1.7-0.8-2.3c-0.5-0.6-1.3-1-2.2-1c-1,0-1.7,0.3-2.2,1c-0.5,0.6-0.8,1.4-0.8,2.3V187.7z" id="XMLID_4527_"/></g><g id="XMLID_4525_"><path class="st1" d="M203,367.3v-17.9h-69.1v-49.9H203v-17.9l74.2,42.9L203,367.3z M140.2,343.2h69.1v13.3     l55.4-32l-55.4-32v13.3h-69.1V343.2z" id="XMLID_5333_"/></g><g id="XMLID_4524_"><path class="st1" d="M225,294.4v-17.9h-91.1v-49.9H225v-17.9l74.2,42.9L225,294.4z M140.2,270.2h91.1v13.3     l55.4-32l-55.4-32v13.3h-91.1V270.2z" id="XMLID_5330_"/></g><g id="XMLID_4523_"><path class="st1" d="M248.5,221.5v-17.9H133.9v-49.9h114.6v-17.9l74.2,42.9L248.5,221.5z M140.2,197.3h114.6     v13.3l55.4-32l-55.4-32v13.3H140.2V197.3z" id="XMLID_5327_"/></g><g id="XMLID_4522_"><path class="st1" d="M416,401.2H96V110.8h27.6v262.9H416V401.2z M102.3,395h307.5v-15H117.3V117h-15V395z" id="XMLID_5324_"/></g></g></g></svg>