<?xml version="1.0" ?><svg id="Layer_1" style="enable-background:new 0 0 512 512;" version="1.1" viewBox="0 0 512 512" xml:space="preserve" xmlns="http://www.w3.org/2000/svg" xmlns:xlink="http://www.w3.org/1999/xlink"><style type="text/css">
	.st0{fill:#7DBAE7;}
	.st1{fill:#FFFFFF;}
</style><g id="XMLID_4784_"><circle class="st0" cx="256" cy="256" id="XMLID_4758_" r="256"/><g id="XMLID_5072_"><g id="XMLID_5102_"><path class="st1" d="M205.3,368.1h-72.9v-96h72.9V368.1z M138.7,361.8h60.4v-83.4h-60.4V361.8z" id="XMLID_5689_"/></g><g id="XMLID_5089_"><path class="st1" d="M152.2,256.3h3.1v3.3h-3.1v5.5h-4.1v-5.5h-10.3l-0.1-2.5l10.3-16.7h4.2V256.3z      M141.7,256.3h6.4v-10.1l-0.1,0l-0.4,1L141.7,256.3z" id="XMLID_5099_"/><path class="st1" d="M174.3,256.3c0,2.9-0.7,5.1-2.2,6.7c-1.5,1.6-3.4,2.5-5.9,2.5c-2.5,0-4.4-0.8-5.9-2.5     c-1.5-1.6-2.2-3.9-2.2-6.7v-7c0-2.8,0.7-5.1,2.2-6.7c1.5-1.7,3.4-2.5,5.9-2.5c2.5,0,4.4,0.8,5.9,2.5c1.5,1.7,2.2,3.9,2.2,6.7     V256.3z M170.2,248.6c0-1.7-0.4-2.9-1.1-3.9c-0.7-0.9-1.7-1.4-2.9-1.4c-1.3,0-2.2,0.5-2.9,1.4c-0.7,0.9-1,2.2-1,3.9v8.2     c0,1.7,0.4,3,1.1,3.9c0.7,0.9,1.7,1.4,3,1.4c1.3,0,2.2-0.5,2.9-1.4c0.7-0.9,1-2.2,1-3.9V248.6z" id="XMLID_5096_"/><path class="st1" d="M177.8,245.2c0-1.4,0.5-2.7,1.4-3.6c0.9-1,2.2-1.5,3.8-1.5c1.6,0,2.9,0.5,3.8,1.5     c0.9,1,1.4,2.2,1.4,3.7v1.3c0,1.4-0.5,2.7-1.4,3.6c-0.9,1-2.2,1.5-3.8,1.5c-1.6,0-2.9-0.5-3.9-1.5c-0.9-1-1.4-2.2-1.4-3.6V245.2z      M180.6,246.5c0,0.7,0.2,1.3,0.6,1.8c0.4,0.5,1,0.8,1.8,0.8c0.7,0,1.3-0.2,1.7-0.7c0.4-0.5,0.6-1.1,0.6-1.9v-1.3     c0-0.7-0.2-1.4-0.6-1.9c-0.4-0.5-1-0.8-1.7-0.8c-0.8,0-1.3,0.3-1.7,0.8c-0.4,0.5-0.6,1.1-0.6,1.9V246.5z M183.9,263.3l-2.1-1.2     l12.1-19.3l2.1,1.2L183.9,263.3z M189.6,259.1c0-1.4,0.5-2.6,1.4-3.6c0.9-1,2.2-1.5,3.8-1.5c1.6,0,2.9,0.5,3.8,1.5     c0.9,1,1.4,2.2,1.4,3.6v1.3c0,1.5-0.5,2.7-1.4,3.6s-2.2,1.5-3.8,1.5c-1.6,0-2.9-0.5-3.9-1.5c-0.9-1-1.4-2.2-1.4-3.6V259.1z      M192.5,260.4c0,0.7,0.2,1.3,0.6,1.9c0.4,0.5,1,0.8,1.8,0.8c0.8,0,1.4-0.2,1.8-0.7c0.4-0.5,0.6-1.1,0.6-1.9v-1.3     c0-0.7-0.2-1.3-0.6-1.9c-0.4-0.5-1-0.8-1.8-0.8c-0.8,0-1.3,0.3-1.7,0.8c-0.4,0.5-0.6,1.1-0.6,1.9V260.4z" id="XMLID_5090_"/></g><g id="XMLID_5088_"><path class="st1" d="M294.5,368.1h-72.9V235.2h72.9V368.1z M227.9,361.8h60.4V241.4h-60.4V361.8z" id="XMLID_5686_"/></g><g id="XMLID_5075_"><path class="st1" d="M236.4,203.4c1,0,1.9,0.1,2.8,0.3c0.9,0.2,1.7,0.4,2.4,0.7l-0.8,3.2     c-0.7-0.3-1.4-0.5-2-0.6c-0.7-0.2-1.4-0.2-2.3-0.2c-1.5,0-2.7,0.6-3.6,1.8c-0.9,1.2-1.4,2.8-1.4,4.8v1.3c0.7-0.7,1.5-1.2,2.4-1.6     c0.9-0.4,1.9-0.6,3-0.6c2.1,0,3.8,0.7,5,2.2c1.2,1.5,1.8,3.4,1.8,5.7c0,2.5-0.7,4.5-2.2,6.1c-1.5,1.5-3.4,2.3-5.8,2.3     c-2.4,0-4.4-0.9-6-2.6c-1.6-1.8-2.4-4.2-2.4-7.2v-5.4c0-3,0.9-5.5,2.6-7.4C231.6,204.3,233.8,203.4,236.4,203.4z M235.5,215.7     c-1,0-1.8,0.2-2.5,0.5c-0.7,0.4-1.2,0.8-1.6,1.5v1.5c0,2,0.4,3.5,1.2,4.6c0.8,1.1,1.8,1.7,3.1,1.7c1.2,0,2.2-0.5,2.8-1.4     c0.7-1,1-2.2,1-3.7c0-1.4-0.4-2.6-1.1-3.4C237.7,216.1,236.8,215.7,235.5,215.7z" id="XMLID_5085_"/><path class="st1" d="M263,219.6c0,2.9-0.7,5.1-2.2,6.7c-1.5,1.6-3.4,2.5-5.9,2.5c-2.5,0-4.4-0.8-5.9-2.5     c-1.5-1.6-2.2-3.9-2.2-6.7v-7c0-2.8,0.7-5.1,2.2-6.7c1.5-1.7,3.4-2.5,5.9-2.5c2.5,0,4.4,0.8,5.9,2.5c1.5,1.7,2.2,3.9,2.2,6.7     V219.6z M258.9,211.9c0-1.7-0.4-2.9-1.1-3.9c-0.7-0.9-1.7-1.4-2.9-1.4c-1.3,0-2.2,0.5-2.9,1.4c-0.7,0.9-1,2.2-1,3.9v8.2     c0,1.7,0.4,3,1.1,3.9c0.7,0.9,1.7,1.4,3,1.4c1.3,0,2.2-0.5,2.9-1.4c0.7-0.9,1-2.2,1-3.9V211.9z" id="XMLID_5082_"/><path class="st1" d="M266.5,208.5c0-1.4,0.5-2.7,1.4-3.6c0.9-1,2.2-1.5,3.8-1.5c1.6,0,2.9,0.5,3.8,1.5     c0.9,1,1.4,2.2,1.4,3.7v1.3c0,1.4-0.5,2.7-1.4,3.6c-0.9,1-2.2,1.5-3.8,1.5c-1.6,0-2.9-0.5-3.9-1.5c-0.9-1-1.4-2.2-1.4-3.6V208.5z      M269.4,209.8c0,0.7,0.2,1.3,0.6,1.8c0.4,0.5,1,0.8,1.8,0.8c0.7,0,1.3-0.2,1.7-0.7c0.4-0.5,0.6-1.1,0.6-1.9v-1.3     c0-0.7-0.2-1.4-0.6-1.9c-0.4-0.5-1-0.8-1.7-0.8c-0.8,0-1.3,0.3-1.7,0.8c-0.4,0.5-0.6,1.1-0.6,1.9V209.8z M272.6,226.6l-2.1-1.2     l12.1-19.3l2.1,1.2L272.6,226.6z M278.4,222.4c0-1.4,0.5-2.6,1.4-3.6c0.9-1,2.2-1.5,3.8-1.5c1.6,0,2.9,0.5,3.8,1.5     c0.9,1,1.4,2.2,1.4,3.6v1.3c0,1.5-0.5,2.7-1.4,3.6c-0.9,1-2.2,1.5-3.8,1.5c-1.6,0-2.9-0.5-3.9-1.5c-0.9-1-1.4-2.2-1.4-3.6V222.4z      M281.3,223.7c0,0.7,0.2,1.3,0.6,1.9c0.4,0.5,1,0.8,1.8,0.8c0.8,0,1.4-0.2,1.8-0.7c0.4-0.5,0.6-1.1,0.6-1.9v-1.3     c0-0.7-0.2-1.3-0.6-1.9c-0.4-0.5-1-0.8-1.8-0.8c-0.8,0-1.3,0.3-1.7,0.8c-0.4,0.5-0.6,1.1-0.6,1.9V223.7z" id="XMLID_5076_"/></g><g id="XMLID_5074_"><path class="st1" d="M383.8,368.1h-72.9V218.8h-24l60.4-104.7l60.4,104.7h-24V368.1z M317.1,361.8h60.4V212.5     h19.4l-49.6-85.8l-49.6,85.8h19.4V361.8z" id="XMLID_5683_"/></g><g id="XMLID_5073_"><path class="st1" d="M416,401.2H96V110.8h27.6v262.9H416V401.2z M102.3,395h307.5v-15H117.3V117h-15V395z" id="XMLID_5680_"/></g></g></g></svg>