<?xml version="1.0" ?><svg id="Layer_1" style="enable-background:new 0 0 512 512;" version="1.1" viewBox="0 0 512 512" xml:space="preserve" xmlns="http://www.w3.org/2000/svg" xmlns:xlink="http://www.w3.org/1999/xlink"><style type="text/css">
	.st0{fill:#A6D17A;}
	.st1{fill:#FFFFFF;}
</style><g id="XMLID_4776_"><circle class="st0" cx="256" cy="256" id="XMLID_4752_" r="256"/><g id="XMLID_4460_"><g id="XMLID_4520_"><path class="st1" d="M396.1,364.7h-62V226.2h62V364.7z M340.4,358.4h49.4V232.5h-49.4V358.4z" id="XMLID_5321_"/></g><g id="XMLID_4519_"><path class="st1" d="M329.6,364.7h-62V263.5h62V364.7z M273.9,358.4h49.4v-88.7h-49.4V358.4z" id="XMLID_5318_"/></g><g id="XMLID_4518_"><path class="st1" d="M196.6,364.7h-62V253.4h62V364.7z M140.9,358.4h49.4v-98.8h-49.4V358.4z" id="XMLID_5315_"/></g><g id="XMLID_4517_"><path class="st1" d="M263.1,364.7h-62V223.8h62V364.7z M207.4,358.4h49.4V230h-49.4V358.4z" id="XMLID_5312_"/></g><g id="XMLID_4502_"><g id="XMLID_4516_"><path class="st1" d="M299.1,254c-7.4,0-13.5-5.5-14.4-12.7l-49.1-52.5c-2.9,0.7-6,0.5-8.8-0.6l-49.2,42.2      c-0.4,7.7-6.7,13.8-14.5,13.8c-8,0-14.5-6.5-14.5-14.5c0-8,6.5-14.5,14.5-14.5c1,0,2,0.1,3,0.3l52-44.6      c1.7-6.3,7.4-10.8,14-10.8c7.4,0,13.6,5.5,14.4,12.8l49.1,52.4c2.3-0.6,4.7-0.6,7,0l56.3-51.7l-26.3-8.2l67.9-22l-14.9,69.8      l-11.9-27.7l-60.1,55.2C313,248.1,306.7,254,299.1,254z M237.3,181.5l53.5,57.2l0,1.2c0.2,4.4,3.8,7.9,8.3,7.9      c4.5,0,8.2-3.7,8.3-8.2c0-0.1,0-0.1,0-0.2l0-1.4l68.6-63l7.6,17.7l8.5-39.8l-38.7,12.5l17.8,5.5L304,232.5l-1.8-0.7      c-2.1-0.8-4.3-0.8-6.3,0.1l-2,0.9l-53.5-57.2l0-1.2c-0.2-4.5-3.8-8-8.3-8c-4,0-7.4,2.8-8.1,6.8l-0.2,1.1l-56.3,48.3l-1.7-0.6      c-0.9-0.3-1.8-0.5-2.7-0.5c-4.6,0-8.3,3.7-8.3,8.3c0,4.6,3.7,8.3,8.3,8.3c4.6,0,8.3-3.7,8.3-8.3c0-0.1,0-0.2,0-0.3l-0.1-1.7      l54.8-47l1.9,1.1c2.3,1.3,5.1,1.5,7.4,0.5L237.3,181.5z" id="XMLID_5309_"/></g><g id="XMLID_4511_"><path class="st1" d="M299.1,253.9c-8,0-14.5-6.5-14.5-14.5c0-8,6.5-14.5,14.5-14.5c8,0,14.5,6.5,14.5,14.5      C313.6,247.4,307.1,253.9,299.1,253.9z M299.1,231.2c-4.5,0-8.2,3.7-8.2,8.2c0,4.5,3.7,8.2,8.2,8.2c4.5,0,8.2-3.7,8.2-8.2      C307.4,234.9,303.7,231.2,299.1,231.2z" id="XMLID_5306_"/></g><g id="XMLID_4509_"><path class="st1" d="M232.1,188.5c-7.6,0-13.9-6.2-13.9-13.9s6.2-13.9,13.9-13.9S246,167,246,174.7      S239.7,188.5,232.1,188.5z M232.1,167.1c-4.2,0-7.6,3.4-7.6,7.6s3.4,7.6,7.6,7.6c4.2,0,7.6-3.4,7.6-7.6S236.3,167.1,232.1,167.1      z" id="XMLID_5303_"/></g><g id="XMLID_4504_"><path class="st1" d="M163,243.4c-7.5,0-13.7-6.1-13.7-13.7c0-7.5,6.1-13.7,13.7-13.7c7.5,0,13.7,6.1,13.7,13.7      C176.7,237.3,170.6,243.4,163,243.4z M163,222.4c-4.1,0-7.4,3.3-7.4,7.4c0,4.1,3.3,7.4,7.4,7.4c4.1,0,7.4-3.3,7.4-7.4      C170.4,225.7,167.1,222.4,163,222.4z" id="XMLID_5300_"/></g></g><g id="XMLID_4475_"><path class="st1" d="M416,401.2H96V110.8h27.6v262.9H416V401.2z M102.3,395h307.5v-15H117.3V117h-15V395z" id="XMLID_5297_"/></g></g></g></svg>